<?xml version="1.0" encoding="UTF-8"?>
<svg width="1200pt" height="1200pt" version="1.1" viewBox="0 0 1200 1200" xmlns="http://www.w3.org/2000/svg">
 <path d="m997.71 519.43v-138.87c0-169.7-138.88-308.57-308.57-308.57h-154.3c-169.7 0-308.58 138.86-308.58 308.57v138.86l-154.27 401.15c0 77.137 241.77 231.42 540 231.42s540-154.29 540-231.42zm-617.15 507.21c-15.984 0-28.934-12.961-28.934-28.934 0-15.996 12.949-28.922 28.934-28.922 15.996 0 28.934 12.926 28.934 28.922 0 15.973-12.938 28.934-28.934 28.934m-38.566-414.65c0-21.215 10.727-52.234 23.797-68.914 0 0 36.66-46.801 111.2-46.801 37.824 0 64.211 17.387 64.211 17.387 17.723 11.652 32.219 38.543 32.219 59.746v57.863c0 10.598-17.352 19.285-38.566 19.285h-154.3c-21.215 0.011719-38.566-17.363-38.566-38.566m154.27 385.71h-38.566v-77.137l38.566-38.578zm96.43 0h-57.852v-154.28h57.852zm-38.566-192.86v-57.852c0-31.969 25.934-57.852 57.863-57.852 31.945 0 57.852 25.883 57.852 57.852v57.852zm135.01 192.86h-57.852v-154.28h57.852zm77.137 0h-38.566l-0.003906-115.71 38.566 38.578zm77.148 28.934c-15.996 0-28.934-12.961-28.934-28.934 0-15.996 12.938-28.922 28.934-28.922 15.973 0 28.922 12.926 28.922 28.922-0.003907 15.973-12.953 28.934-28.922 28.934m0-376.07h-154.29c-21.227 0-38.566-8.6992-38.566-19.285v-57.863c0-21.215 14.484-48.109 32.219-59.746 0 0 26.387-17.387 64.211-17.387 74.578 0 111.2 46.801 111.2 46.801 13.082 16.668 23.785 47.688 23.785 68.902 0 21.203-17.375 38.578-38.566 38.578m238.4 287.98c-2.2812 0.89844-4.6562 1.2969-6.9844 1.2969-7.7383 0-15.012-4.668-17.953-12.277l-140.27-360.3c-37.094-92.676-82.945-128.86-163.5-128.86-53.438 0-98.281 33.145-98.688 33.504-23.809 17.844-61.055 17.762-84.875 0-0.39453-0.35938-45.672-33.504-98.711-33.504-80.531 0-126.38 36.18-163.54 129.01l-140.21 360.14c-3.8516 9.9258-15.086 14.844-24.973 10.98-9.8984-3.8398-14.832-15.023-10.957-24.984l140.26-360.27c43.02-107.59 102.65-153.45 199.41-153.45 66.18 0 119.62 39.527 121.85 41.172 10.105 7.6094 28.5 7.6094 38.578 0 2.2422-1.6445 55.703-41.172 121.84-41.172 96.781 0 156.39 45.852 199.38 153.29l140.34 360.43c3.8398 9.9609-1.0547 21.145-11.004 24.984"/>
</svg>
